<?xml version="1.0" standalone="no"?>
<!DOCTYPE svg PUBLIC "-//W3C//DTD SVG 1.1//EN" "http://www.w3.org/Graphics/SVG/1.1/DTD/svg11.dtd">
<svg xmlns="http://www.w3.org/2000/svg" xmlns:xlink="http://www.w3.org/1999/xlink" height="402" stroke-miterlimit="10" style="fill-rule:nonzero;clip-rule:evenodd;stroke-linecap:round;stroke-linejoin:round;" version="1.1" viewBox="0 0 1044 402" width="1044" xml:space="preserve">
<defs>
<linearGradient gradientTransform="matrix(2.94071 0 0 2.94071 125.915 -491.505)" gradientUnits="userSpaceOnUse" id="LinearGradient" x1="249.407" x2="251.522" y1="328.008" y2="173.276">
<stop offset="0" stop-color="#014755"/>
<stop offset="0.502169" stop-color="#109cba"/>
<stop offset="1" stop-color="#22e1d9"/>
</linearGradient>
</defs>
<g id="Camada-1">
<g opacity="1">
<path d="M729.171 346.685L733.945 346.685L752.049 395.293L746.345 395.293L740.517 378.677L722.041 378.677L715.965 395.293L710.571 395.293L729.171 346.685ZM739.153 374.399L731.651 352.513L723.529 374.399L739.153 374.399Z" fill="#000000" fill-rule="nonzero" opacity="1" stroke="none"/>
<path d="M757.443 346.623L769.099 346.623C773.398 346.623 776.994 347.16 779.887 348.235C781.086 348.69 782.222 349.258 783.297 349.94C784.372 350.622 785.384 351.438 786.335 352.389C788.608 354.662 790.344 357.39 791.543 360.573C792.742 363.756 793.341 367.083 793.341 370.555C793.341 378.284 791.13 384.36 786.707 388.783C782.243 393.123 776.126 395.293 768.355 395.293L757.443 395.293L757.443 346.623ZM767.177 350.901L762.341 350.901L762.341 391.015L770.339 391.015C775.01 391.015 778.957 389.403 782.181 386.179C785.942 382.418 787.823 377.189 787.823 370.493C787.823 369.17 787.751 367.93 787.606 366.773C787.461 365.616 787.244 364.5 786.955 363.425C786.046 360.284 784.434 357.597 782.119 355.365C780.424 353.753 778.461 352.596 776.229 351.893C774.08 351.232 771.062 350.901 767.177 350.901Z" fill="#000000" fill-rule="nonzero" opacity="1" stroke="none"/>
<path d="M797.495 346.685L803.013 346.685L818.823 389.403L834.323 346.685L839.965 346.685L821.365 395.293L816.529 395.293L797.495 346.685Z" fill="#000000" fill-rule="nonzero" opacity="1" stroke="none"/>
<path d="M844.739 346.685L849.575 346.685L849.575 395.293L844.739 395.293L844.739 346.685Z" fill="#000000" fill-rule="nonzero" opacity="1" stroke="none"/>
<path d="M886.961 350.095L886.961 356.357C885.886 355.448 884.801 354.642 883.706 353.939C882.611 353.236 881.526 352.658 880.451 352.203C877.971 351.046 875.45 350.467 872.887 350.467C869.663 350.467 866.997 351.273 864.889 352.885C862.74 354.538 861.665 356.502 861.665 358.775C861.665 362.082 864.104 364.562 868.981 366.215C871.254 367 873.517 367.755 875.77 368.478C878.023 369.201 880.306 369.935 882.621 370.679C887.54 373.035 889.999 376.548 889.999 381.219C889.999 385.766 888.242 389.424 884.729 392.193C881.381 394.797 877.227 396.099 872.267 396.099C868.96 396.099 865.778 395.458 862.719 394.177C860.942 393.474 858.834 392.317 856.395 390.705L856.395 384.381C859.578 387.233 862.802 389.238 866.067 390.395C867.142 390.808 868.196 391.098 869.229 391.263C870.262 391.428 871.296 391.511 872.329 391.511C875.636 391.511 878.426 390.684 880.699 389.031C883.22 387.212 884.481 384.836 884.481 381.901C884.481 378.346 882.084 375.639 877.289 373.779C874.974 373.076 872.701 372.353 870.469 371.609C868.237 370.865 866.005 370.142 863.773 369.439C858.937 367.207 856.519 363.776 856.519 359.147C856.519 355.262 858.048 352.1 861.107 349.661C864.248 347.14 868.175 345.879 872.887 345.879C875.78 345.879 878.674 346.416 881.567 347.491C883.055 347.987 884.853 348.855 886.961 350.095Z" fill="#000000" fill-rule="nonzero" opacity="1" stroke="none"/>
<path d="M917.217 396.099C911.596 396.099 906.677 393.908 902.461 389.527C897.832 384.774 895.517 378.636 895.517 371.113C895.517 363.921 897.687 357.845 902.027 352.885C906.243 348.214 911.244 345.879 917.031 345.879C922.9 345.879 927.943 348.173 932.159 352.761C936.499 357.597 938.669 363.694 938.669 371.051C938.669 378.698 936.313 384.898 931.601 389.651C927.426 393.95 922.632 396.099 917.217 396.099ZM916.845 391.511C921.433 391.511 925.339 389.589 928.563 385.745C931.828 381.818 933.461 376.92 933.461 371.051C933.461 368.199 933.068 365.554 932.283 363.115C931.498 360.676 930.32 358.465 928.749 356.481C925.608 352.472 921.722 350.467 917.093 350.467C912.505 350.467 908.62 352.472 905.437 356.481C902.296 360.408 900.725 365.306 900.725 371.175C900.725 377.292 902.378 382.273 905.685 386.117C908.785 389.713 912.505 391.511 916.845 391.511Z" fill="#000000" fill-rule="nonzero" opacity="1" stroke="none"/>
<path d="M944.187 346.685L960.245 346.685C964.544 346.685 968.098 347.388 970.909 348.793C974.836 350.777 976.799 354.084 976.799 358.713C976.799 361.896 975.91 364.5 974.133 366.525C972.356 368.55 969.504 370.162 965.577 371.361C966.28 371.65 966.9 371.929 967.437 372.198C967.974 372.467 968.408 372.766 968.739 373.097C970.186 374.337 971.322 376.156 972.149 378.553L978.349 395.293L972.831 395.293L969.607 385.125C967.912 380.041 966.135 376.714 964.275 375.143C962.663 373.655 959.997 372.911 956.277 372.911L949.085 372.911L949.085 395.293L944.187 395.293L944.187 346.685ZM961.175 350.963L949.085 350.963L949.085 369.067L956.525 369.067C959.501 369.067 962.012 368.788 964.058 368.23C966.104 367.672 967.768 366.773 969.049 365.533C969.917 364.748 970.63 363.776 971.188 362.619C971.746 361.462 972.025 360.284 972.025 359.085C972.025 356.812 971.095 354.931 969.235 353.443C967.21 351.79 964.523 350.963 961.175 350.963Z" fill="#000000" fill-rule="nonzero" opacity="1" stroke="none"/>
<path d="M1013.94 350.095L1013.94 356.357C1012.86 355.448 1011.78 354.642 1010.68 353.939C1009.59 353.236 1008.5 352.658 1007.43 352.203C1004.95 351.046 1002.43 350.467 999.863 350.467C996.639 350.467 993.973 351.273 991.865 352.885C989.716 354.538 988.641 356.502 988.641 358.775C988.641 362.082 991.08 364.562 995.957 366.215C998.23 367 1000.49 367.755 1002.75 368.478C1005 369.201 1007.28 369.935 1009.6 370.679C1014.52 373.035 1016.98 376.548 1016.98 381.219C1016.98 385.766 1015.22 389.424 1011.71 392.193C1008.36 394.797 1004.2 396.099 999.243 396.099C995.936 396.099 992.754 395.458 989.695 394.177C987.918 393.474 985.81 392.317 983.371 390.705L983.371 384.381C986.554 387.233 989.778 389.238 993.043 390.395C994.118 390.808 995.172 391.098 996.205 391.263C997.238 391.428 998.272 391.511 999.305 391.511C1002.61 391.511 1005.4 390.684 1007.68 389.031C1010.2 387.212 1011.46 384.836 1011.46 381.901C1011.46 378.346 1009.06 375.639 1004.27 373.779C1001.95 373.076 999.677 372.353 997.445 371.609C995.213 370.865 992.981 370.142 990.749 369.439C985.913 367.207 983.495 363.776 983.495 359.147C983.495 355.262 985.024 352.1 988.083 349.661C991.224 347.14 995.151 345.879 999.863 345.879C1002.76 345.879 1005.65 346.416 1008.54 347.491C1010.03 347.987 1011.83 348.855 1013.94 350.095Z" fill="#000000" fill-rule="nonzero" opacity="1" stroke="none"/>
</g>
<path d="M864.953 10.3412C858.898 10.2981 852.873 13.5598 849.422 20.1742L710.095 302.157C702.588 316.547 715.148 331.144 730.496 325.867L864.585 274.367C864.25 274.482 864.509 274.458 864.861 274.459C865.213 274.459 865.472 274.483 865.137 274.367L995.436 325.213C1010.69 330.499 1023.28 316.106 1016.02 301.687L880.392 20.4499C877.035 13.787 871.008 10.3843 864.953 10.3412ZM866.08 44.5903L881.505 75.2075L985.485 294.788L874.694 246.614C868.808 244.575 860.919 244.496 855.028 246.522L744.791 294.001C766.232 252.904 849.709 75.9699 866.08 44.5903Z" fill="url(#LinearGradient)" fill-rule="nonzero" opacity="1" stroke="none"/>
<path d="M572.803 8.62436C564.756 8.86896 556.781 9.45797 548.928 10.4056C511.347 14.9402 479.872 27.6762 456.897 50.4681C429.604 77.5428 416.14 117.189 418.428 169.937C420.618 220.443 434.879 258.424 459.834 284.656C481.258 307.175 509.545 320.058 542.709 324.874C572.91 329.26 604.87 326.778 635.897 319.999C642.935 318.462 649.37 316.812 655.084 315.156C657.104 314.57 658.91 314.026 660.459 313.531C661.422 313.223 662.093 312.981 662.49 312.843L670.99 309.906L669.834 178.062L580.053 177.312C573.15 177.254 567.486 182.784 567.428 189.687C567.37 196.59 572.931 202.254 579.834 202.312L645.022 202.843L645.803 291.718C641.133 293.026 636.174 294.334 630.553 295.562C602.216 301.753 573.112 304.049 546.303 300.156C518.322 296.092 495.18 285.538 477.959 267.437C457.457 245.886 445.34 213.644 443.397 168.843C441.398 122.762 452.521 90.0119 474.49 68.2181C493.032 49.825 519.426 39.1399 551.928 35.2181C580.533 31.7665 611.5 33.7266 641.615 39.1244C648.454 40.35 654.687 41.6616 660.178 42.9681C662.082 43.4211 663.728 43.8458 665.147 44.2181C665.632 44.3456 666.732 44.6443 666.772 44.6556C673.412 46.5449 680.32 42.7018 682.209 36.0619C684.098 29.4219 680.255 22.4824 673.615 20.5931C673.216 20.4795 672.512 20.2904 671.522 20.0306C669.92 19.6101 668.053 19.1539 665.959 18.6556C660.026 17.244 653.337 15.8419 646.022 14.5306C621.753 10.1807 596.943 7.89055 572.803 8.62436Z" fill="#014755" fill-rule="nonzero" opacity="1" stroke="none"/>
<path d="M13.0842 0.280606C12.2539 0.257615 11.4028 0.318577 10.5529 0.468106C3.7538 1.66436-0.768319 8.13773 0.427921 14.9369L54.8029 323.999L90.2717 323.999L186.147 53.8119L281.834 323.999L318.022 323.999L379.272 16.3119C380.619 9.54112 376.199 2.94084 369.428 1.59311C362.657 0.245416 356.088 4.66616 354.74 11.4369L298.209 295.343L197.928 12.2494C193.997 1.15097 178.303 1.15339 174.365 12.2494L74.7404 292.999L25.0529 10.6244C24.0062 4.67512 18.896 0.441538 13.0842 0.280606Z" fill="#014755" fill-rule="nonzero" opacity="1" stroke="none"/>
</g>
</svg>